<svg width="512" height="512" viewBox="0 0 512 512" fill="none" xmlns="http://www.w3.org/2000/svg">
<rect width="512" height="512" rx="128" fill="#09090B"/>
<path d="M91.773 300L65.917 209.12H90.237L102.525 258.912L114.813 209.12H139.133L113.277 300H91.773ZM169.035 301.536C164.854 301.536 161.014 300.768 157.515 299.232C154.016 297.696 151.2 295.435 149.067 292.448C147.019 289.461 145.995 285.835 145.995 281.568C145.995 275.765 147.915 271.243 151.755 268C155.68 264.757 160.587 262.453 166.475 261.088L185.675 256.736C185.675 253.408 185.078 250.763 183.883 248.8C182.774 246.752 180.555 245.728 177.227 245.728C174.582 245.728 172.576 246.496 171.211 248.032C169.846 249.483 169.035 251.189 168.779 253.152L146.507 252.128C147.787 245.216 151.115 239.712 156.491 235.616C161.952 231.435 168.694 229.344 176.715 229.344C187.723 229.344 195.574 231.861 200.267 236.896C205.046 241.931 207.435 249.056 207.435 258.272V279.776C207.435 281.653 207.734 282.933 208.331 283.616C208.928 284.299 209.739 284.64 210.763 284.64H212.555V300C212.043 300.085 211.147 300.213 209.867 300.384C208.672 300.64 207.35 300.768 205.899 300.768C201.291 300.768 197.536 299.744 194.635 297.696C191.734 295.563 189.728 292.747 188.619 289.248C187.424 292.832 185.163 295.776 181.835 298.08C178.507 300.384 174.24 301.536 169.035 301.536ZM174.283 286.176C177.782 286.176 180.555 285.152 182.603 283.104C184.651 281.056 185.675 277.984 185.675 273.888V271.072L174.155 273.888C172.022 274.4 170.486 275.168 169.547 276.192C168.694 277.216 168.267 278.752 168.267 280.8C168.267 284.384 170.272 286.176 174.283 286.176ZM220.185 300L244.249 264.672L221.209 230.88H244.249L256.025 249.824L267.673 230.88H290.713L268.057 264.672L291.865 300H268.825L256.025 279.264L243.225 300H220.185ZM299.495 300V283.36H323.559V233.184C323.559 228.235 321.084 225.76 316.135 225.76H302.055V209.12H320.999C337.212 209.12 345.319 217.227 345.319 233.44V283.36H366.055V300H299.495ZM399.285 301.536C395.104 301.536 391.264 300.768 387.765 299.232C384.266 297.696 381.45 295.435 379.317 292.448C377.269 289.461 376.245 285.835 376.245 281.568C376.245 275.765 378.165 271.243 382.005 268C385.93 264.757 390.837 262.453 396.725 261.088L415.925 256.736C415.925 253.408 415.328 250.763 414.133 248.8C413.024 246.752 410.805 245.728 407.477 245.728C404.832 245.728 402.826 246.496 401.461 248.032C400.096 249.483 399.285 251.189 399.029 253.152L376.757 252.128C378.037 245.216 381.365 239.712 386.741 235.616C392.202 231.435 398.944 229.344 406.965 229.344C417.973 229.344 425.824 231.861 430.517 236.896C435.296 241.931 437.685 249.056 437.685 258.272V279.776C437.685 281.653 437.984 282.933 438.581 283.616C439.178 284.299 439.989 284.64 441.013 284.64H442.805V300C442.293 300.085 441.397 300.213 440.117 300.384C438.922 300.64 437.6 300.768 436.149 300.768C431.541 300.768 427.786 299.744 424.885 297.696C421.984 295.563 419.978 292.747 418.869 289.248C417.674 292.832 415.413 295.776 412.085 298.08C408.757 300.384 404.49 301.536 399.285 301.536ZM404.533 286.176C408.032 286.176 410.805 285.152 412.853 283.104C414.901 281.056 415.925 277.984 415.925 273.888V271.072L404.405 273.888C402.272 274.4 400.736 275.168 399.797 276.192C398.944 277.216 398.517 278.752 398.517 280.8C398.517 284.384 400.522 286.176 404.533 286.176Z" fill="white"/>
</svg>
