<svg width="371" height="113" viewBox="0 0 371 113" fill="none" xmlns="http://www.w3.org/2000/svg">
<path d="M0.912 93V2.12H30.352C40.592 2.12 48.528 4.08266 54.16 8.008C59.792 11.9333 62.608 17.992 62.608 26.184C62.608 31.2187 61.2 35.4853 58.384 38.984C55.6533 42.3973 50.9173 44.744 44.176 46.024C52.2827 47.048 58 49.608 61.328 53.704C64.7413 57.7147 66.448 62.6213 66.448 68.424C66.448 76.872 63.5893 83.1013 57.872 87.112C52.24 91.0373 43.92 93 32.912 93H0.912ZM23.952 37.576H29.84C32.8267 37.576 35.088 36.8933 36.624 35.528C38.2453 34.0773 39.056 32.072 39.056 29.512C39.056 27.0373 38.2453 25.16 36.624 23.88C35.088 22.5147 32.8267 21.832 29.84 21.832H23.952V37.576ZM23.952 73.288L32.912 73.16C36.1547 73.0747 38.6293 72.3493 40.336 70.984C42.0427 69.5333 42.896 67.5707 42.896 65.096C42.896 59.3787 39.568 56.52 32.912 56.52H23.952V73.288ZM72.542 93L95.582 2.12H122.718L145.758 93H122.974L119.518 78.024H98.782L95.326 93H72.542ZM109.15 32.072L103.134 58.696H115.166L109.15 32.072ZM186.156 95.048C175.319 95.048 167.169 92.104 161.708 86.216C156.332 80.328 153.303 71.9653 152.62 61.128L175.532 60.104C176.3 65.3947 177.665 69.2773 179.628 71.752C181.591 74.1413 184.236 75.336 187.564 75.336C190.124 75.336 192.172 74.696 193.708 73.416C195.329 72.136 196.14 70.3013 196.14 67.912C196.14 65.0107 194.988 62.5787 192.684 60.616C190.465 58.568 186.583 56.904 181.036 55.624C175.148 54.2587 170.199 52.5093 166.188 50.376C162.177 48.2427 159.148 45.4693 157.1 42.056C155.137 38.5573 154.156 34.12 154.156 28.744C154.156 19.8693 156.887 12.872 162.348 7.752C167.895 2.632 175.831 0.0719986 186.156 0.0719986C196.055 0.0719986 203.777 2.67466 209.324 7.88C214.956 13.0853 218.028 20.9787 218.54 31.56L195.372 32.456C194.348 24.008 190.892 19.784 185.004 19.784C182.615 19.784 180.695 20.4667 179.244 21.832C177.879 23.1973 177.196 25.0747 177.196 27.464C177.196 30.1093 178.348 32.2853 180.652 33.992C182.956 35.6987 187.18 37.2773 193.324 38.728C199.895 40.1787 205.057 42.2267 208.812 44.872C212.567 47.5173 215.212 50.6747 216.748 54.344C218.369 57.928 219.18 62.024 219.18 66.632C219.18 75.4213 216.321 82.376 210.604 87.496C204.972 92.5307 196.823 95.048 186.156 95.048ZM234.49 93V2.12H292.346V22.344H257.53V37.576H290.81V57.288H257.53V72.776H293.37V93H234.49ZM308.68 112.2V93H370.12V112.2H308.68Z" fill="black"/>
</svg>
