<svg width="378" height="93" viewBox="0 0 378 93" fill="none" xmlns="http://www.w3.org/2000/svg">
<path d="M26.648 91L0.792 0.119995H25.112L37.4 49.912L49.688 0.119995H74.008L48.152 91H26.648ZM103.91 92.536C99.7287 92.536 95.8887 91.768 92.39 90.232C88.8913 88.696 86.0753 86.4347 83.942 83.448C81.894 80.4613 80.87 76.8347 80.87 72.568C80.87 66.7653 82.79 62.2427 86.63 59C90.5553 55.7573 95.462 53.4533 101.35 52.088L120.55 47.736C120.55 44.408 119.953 41.7627 118.758 39.8C117.649 37.752 115.43 36.728 112.102 36.728C109.457 36.728 107.451 37.496 106.086 39.032C104.721 40.4827 103.91 42.1893 103.654 44.152L81.382 43.128C82.662 36.216 85.99 30.712 91.366 26.616C96.8273 22.4347 103.569 20.344 111.59 20.344C122.598 20.344 130.449 22.8613 135.142 27.896C139.921 32.9307 142.31 40.056 142.31 49.272V70.776C142.31 72.6533 142.609 73.9333 143.206 74.616C143.803 75.2987 144.614 75.64 145.638 75.64H147.43V91C146.918 91.0853 146.022 91.2133 144.742 91.384C143.547 91.64 142.225 91.768 140.774 91.768C136.166 91.768 132.411 90.744 129.51 88.696C126.609 86.5627 124.603 83.7467 123.494 80.248C122.299 83.832 120.038 86.776 116.71 89.08C113.382 91.384 109.115 92.536 103.91 92.536ZM109.158 77.176C112.657 77.176 115.43 76.152 117.478 74.104C119.526 72.056 120.55 68.984 120.55 64.888V62.072L109.03 64.888C106.897 65.4 105.361 66.168 104.422 67.192C103.569 68.216 103.142 69.752 103.142 71.8C103.142 75.384 105.147 77.176 109.158 77.176ZM155.06 91L179.124 55.672L156.084 21.88H179.124L190.9 40.824L202.548 21.88H225.588L202.932 55.672L226.74 91H203.7L190.9 70.264L178.1 91H155.06ZM234.37 91V74.36H258.434V24.184C258.434 19.2347 255.959 16.76 251.01 16.76H236.93V0.119995H255.874C272.087 0.119995 280.194 8.22666 280.194 24.44V74.36H300.93V91H234.37ZM334.16 92.536C329.979 92.536 326.139 91.768 322.64 90.232C319.141 88.696 316.325 86.4347 314.192 83.448C312.144 80.4613 311.12 76.8347 311.12 72.568C311.12 66.7653 313.04 62.2427 316.88 59C320.805 55.7573 325.712 53.4533 331.6 52.088L350.8 47.736C350.8 44.408 350.203 41.7627 349.008 39.8C347.899 37.752 345.68 36.728 342.352 36.728C339.707 36.728 337.701 37.496 336.336 39.032C334.971 40.4827 334.16 42.1893 333.904 44.152L311.632 43.128C312.912 36.216 316.24 30.712 321.616 26.616C327.077 22.4347 333.819 20.344 341.84 20.344C352.848 20.344 360.699 22.8613 365.392 27.896C370.171 32.9307 372.56 40.056 372.56 49.272V70.776C372.56 72.6533 372.859 73.9333 373.456 74.616C374.053 75.2987 374.864 75.64 375.888 75.64H377.68V91C377.168 91.0853 376.272 91.2133 374.992 91.384C373.797 91.64 372.475 91.768 371.024 91.768C366.416 91.768 362.661 90.744 359.76 88.696C356.859 86.5627 354.853 83.7467 353.744 80.248C352.549 83.832 350.288 86.776 346.96 89.08C343.632 91.384 339.365 92.536 334.16 92.536ZM339.408 77.176C342.907 77.176 345.68 76.152 347.728 74.104C349.776 72.056 350.8 68.984 350.8 64.888V62.072L339.28 64.888C337.147 65.4 335.611 66.168 334.672 67.192C333.819 68.216 333.392 69.752 333.392 71.8C333.392 75.384 335.397 77.176 339.408 77.176Z" fill="black"/>
</svg>
